<?xml version="1.0" encoding="utf-8" standalone="no"?>
<!DOCTYPE svg PUBLIC "-//W3C//DTD SVG 1.1//EN"
  "http://www.w3.org/Graphics/SVG/1.1/DTD/svg11.dtd">
<!-- Created with matplotlib (http://matplotlib.org/) -->
<svg height="372.170625pt" version="1.1" viewBox="0 0 377.495 372.170625" width="377.495pt" xmlns="http://www.w3.org/2000/svg" xmlns:xlink="http://www.w3.org/1999/xlink">
 <defs>
  <style type="text/css">
*{stroke-linecap:butt;stroke-linejoin:round;}
  </style>
 </defs>
 <g id="figure_1">
  <g id="patch_1">
   <path d="M 0 372.170625 
L 377.495 372.170625 
L 377.495 0 
L 0 0 
z
" style="fill:#ffffff;"/>
  </g>
  <g id="axes_1">
   <g id="patch_2">
    <path d="M 10.7 295.28 
L 144.62 295.28 
L 144.62 10.7 
L 10.7 10.7 
z
" style="fill:#ffffff;"/>
   </g>
   <g id="patch_3">
    <path clip-path="url(#p0aa8179680)" d="M 22.418 283.562 
L 35.81 283.562 
L 35.81 270.17 
L 22.418 270.17 
z
" style="fill:#00ff00;"/>
   </g>
   <g id="patch_4">
    <path clip-path="url(#p0aa8179680)" d="M 39.158 283.562 
L 52.55 283.562 
L 52.55 270.17 
L 39.158 270.17 
z
" style="fill:#00ff00;"/>
   </g>
   <g id="patch_5">
    <path clip-path="url(#p0aa8179680)" d="M 55.898 283.518519 
L 69.29 283.518519 
L 69.29 270.213481 
L 55.898 270.213481 
z
" style="fill:#00ff00;stroke:#000000;stroke-linejoin:miter;"/>
   </g>
   <g id="patch_6">
    <path clip-path="url(#p0aa8179680)" d="M 22.418 266.822 
L 35.81 266.822 
L 35.81 253.43 
L 22.418 253.43 
z
" style="fill:#00ff00;"/>
   </g>
   <g id="patch_7">
    <path clip-path="url(#p0aa8179680)" d="M 39.158 266.822 
L 52.55 266.822 
L 52.55 253.43 
L 39.158 253.43 
z
" style="fill:#00ff00;"/>
   </g>
   <g id="patch_8">
    <path clip-path="url(#p0aa8179680)" d="M 28.157429 250.082 
L 30.070571 250.082 
L 30.070571 236.69 
L 28.157429 236.69 
z
" style="fill:#00ff00;"/>
   </g>
   <g id="patch_9">
    <path clip-path="url(#p0aa8179680)" d="M 44.897429 250.082 
L 46.810571 250.082 
L 46.810571 236.69 
L 44.897429 236.69 
z
" style="fill:#00ff00;"/>
   </g>
   <g id="patch_10">
    <path clip-path="url(#p0aa8179680)" d="M 61.637429 250.06352 
L 63.550571 250.06352 
L 63.550571 236.70848 
L 61.637429 236.70848 
z
" style="fill:#00ff00;stroke:#000000;stroke-linejoin:miter;"/>
   </g>
   <g id="patch_11">
    <path clip-path="url(#p0aa8179680)" d="M 72.638 243.835685 
L 86.03 243.835685 
L 86.03 242.936315 
L 72.638 242.936315 
z
" style="fill:#00ff00;stroke:#000000;stroke-linejoin:miter;"/>
   </g>
   <g id="patch_12">
    <path clip-path="url(#p0aa8179680)" d="M 89.378 243.853286 
L 102.77 243.853286 
L 102.77 242.918714 
L 89.378 242.918714 
z
" style="fill:#00ff00;stroke:#000000;stroke-linejoin:miter;"/>
   </g>
   <g id="patch_13">
    <path clip-path="url(#p0aa8179680)" d="M 106.118 243.850646 
L 119.51 243.850646 
L 119.51 242.921354 
L 106.118 242.921354 
z
" style="fill:#00ff00;stroke:#000000;stroke-linejoin:miter;"/>
   </g>
   <g id="patch_14">
    <path clip-path="url(#p0aa8179680)" d="M 22.418 233.342 
L 35.81 233.342 
L 35.81 219.95 
L 22.418 219.95 
z
" style="fill:#00ff00;"/>
   </g>
   <g id="patch_15">
    <path clip-path="url(#p0aa8179680)" d="M 39.158 233.342 
L 52.55 233.342 
L 52.55 219.95 
L 39.158 219.95 
z
" style="fill:#00ff00;"/>
   </g>
   <g id="patch_16">
    <path clip-path="url(#p0aa8179680)" d="M 55.898 233.342 
L 69.29 233.342 
L 69.29 219.95 
L 55.898 219.95 
z
" style="fill:#00ff00;"/>
   </g>
   <g id="patch_17">
    <path clip-path="url(#p0aa8179680)" d="M 60.1388 216.602 
L 65.0492 216.602 
L 65.0492 203.21 
L 60.1388 203.21 
z
" style="fill:#00ff00;"/>
   </g>
   <g id="patch_18">
    <path clip-path="url(#p0aa8179680)" d="M 73.3076 215.23 
L 85.3604 215.23 
L 85.3604 204.582 
L 73.3076 204.582 
z
" style="fill:#00ff00;stroke:#000000;stroke-linejoin:miter;"/>
   </g>
   <g id="patch_19">
    <path clip-path="url(#p0aa8179680)" d="M 89.4896 216.470203 
L 102.6584 216.470203 
L 102.6584 203.341797 
L 89.4896 203.341797 
z
" style="fill:#00ff00;stroke:#000000;stroke-linejoin:miter;"/>
   </g>
   <g id="patch_20">
    <path clip-path="url(#p0aa8179680)" d="M 106.118 216.4202 
L 119.51 216.4202 
L 119.51 203.3918 
L 106.118 203.3918 
z
" style="fill:#00ff00;stroke:#000000;stroke-linejoin:miter;"/>
   </g>
   <g id="patch_21">
    <path clip-path="url(#p0aa8179680)" d="M 57.052483 199.581438 
L 68.135517 199.581438 
L 68.135517 186.750562 
L 57.052483 186.750562 
z
" style="fill:#00ff00;"/>
   </g>
   <g id="patch_22">
    <path clip-path="url(#p0aa8179680)" d="M 73.561586 199.542191 
L 85.106414 199.542191 
L 85.106414 186.789809 
L 73.561586 186.789809 
z
" style="fill:#748b00;stroke:#000000;stroke-linejoin:miter;"/>
   </g>
   <g id="patch_23">
    <path clip-path="url(#p0aa8179680)" d="M 89.378 199.849507 
L 102.77 199.849507 
L 102.77 186.482493 
L 89.378 186.482493 
z
" style="fill:#00ff00;stroke:#000000;stroke-linejoin:miter;"/>
   </g>
   <g id="patch_24">
    <path clip-path="url(#p0aa8179680)" d="M 106.118 199.862 
L 119.51 199.862 
L 119.51 186.47 
L 106.118 186.47 
z
" style="fill:#00ff00;stroke:#000000;stroke-linejoin:miter;"/>
   </g>
   <g id="patch_25">
    <path clip-path="url(#p0aa8179680)" d="M 24.929 180.924875 
L 33.299 180.924875 
L 33.299 171.927125 
L 24.929 171.927125 
z
" style="fill:#00ff00;"/>
   </g>
   <g id="patch_26">
    <path clip-path="url(#p0aa8179680)" d="M 41.669 180.924875 
L 50.039 180.924875 
L 50.039 171.927125 
L 41.669 171.927125 
z
" style="fill:#00ff00;"/>
   </g>
   <g id="patch_27">
    <path clip-path="url(#p0aa8179680)" d="M 57.572 182.180375 
L 67.616 182.180375 
L 67.616 170.671625 
L 57.572 170.671625 
z
" style="fill:#00ff00;stroke:#000000;stroke-linejoin:miter;"/>
   </g>
   <g id="patch_28">
    <path clip-path="url(#p0aa8179680)" d="M 75.149 182.546562 
L 83.519 182.546562 
L 83.519 170.305437 
L 75.149 170.305437 
z
" style="fill:#00ff00;stroke:#000000;stroke-linejoin:miter;"/>
   </g>
   <g id="patch_29">
    <path clip-path="url(#p0aa8179680)" d="M 91.889 183.122 
L 100.259 183.122 
L 100.259 169.73 
L 91.889 169.73 
z
" style="fill:#00ff00;stroke:#000000;stroke-linejoin:miter;"/>
   </g>
   <g id="patch_30">
    <path clip-path="url(#p0aa8179680)" d="M 106.118 182.278461 
L 119.51 182.278461 
L 119.51 170.573539 
L 106.118 170.573539 
z
" style="fill:#00ff00;stroke:#000000;stroke-linejoin:miter;"/>
   </g>
   <g id="patch_31">
    <path clip-path="url(#p0aa8179680)" d="M 89.378 166.149548 
L 102.77 166.149548 
L 102.77 153.222452 
L 89.378 153.222452 
z
" style="fill:#ff0000;"/>
   </g>
   <g id="patch_32">
    <path clip-path="url(#p0aa8179680)" d="M 106.7876 166.382 
L 118.8404 166.382 
L 118.8404 152.99 
L 106.7876 152.99 
z
" style="fill:#ff0000;stroke:#000000;stroke-linejoin:miter;"/>
   </g>
   <g id="patch_33">
    <path clip-path="url(#p0aa8179680)" d="M 89.378 149.633723 
L 102.77 149.633723 
L 102.77 136.258277 
L 89.378 136.258277 
z
" style="fill:#fc0300;"/>
   </g>
   <g id="patch_34">
    <path clip-path="url(#p0aa8179680)" d="M 106.118 149.642 
L 119.51 149.642 
L 119.51 136.25 
L 106.118 136.25 
z
" style="fill:#fc0300;stroke:#000000;stroke-linejoin:miter;"/>
   </g>
   <g id="patch_35">
    <path clip-path="url(#p0aa8179680)" d="M 25.4312 132.071042 
L 32.7968 132.071042 
L 32.7968 120.340958 
L 25.4312 120.340958 
z
" style="fill:#b14e00;"/>
   </g>
   <g id="patch_36">
    <path clip-path="url(#p0aa8179680)" d="M 42.1712 132.071042 
L 49.5368 132.071042 
L 49.5368 120.340958 
L 42.1712 120.340958 
z
" style="fill:#b14e00;"/>
   </g>
   <g id="patch_37">
    <path clip-path="url(#p0aa8179680)" d="M 56.81312 132.24275 
L 68.37488 132.24275 
L 68.37488 120.16925 
L 56.81312 120.16925 
z
" style="fill:#897600;stroke:#000000;stroke-linejoin:miter;"/>
   </g>
   <g id="patch_38">
    <path clip-path="url(#p0aa8179680)" d="M 73.77632 132.902 
L 84.89168 132.902 
L 84.89168 119.51 
L 73.77632 119.51 
z
" style="fill:#a35c00;stroke:#000000;stroke-linejoin:miter;"/>
   </g>
   <g id="patch_39">
    <path clip-path="url(#p0aa8179680)" d="M 89.86904 132.761473 
L 102.27896 132.761473 
L 102.27896 119.650527 
L 89.86904 119.650527 
z
" style="fill:#669900;stroke:#000000;stroke-linejoin:miter;"/>
   </g>
   <g id="patch_40">
    <path clip-path="url(#p0aa8179680)" d="M 106.118 132.661286 
L 119.51 132.661286 
L 119.51 119.750714 
L 106.118 119.750714 
z
" style="fill:#679800;stroke:#000000;stroke-linejoin:miter;"/>
   </g>
   <g id="patch_41">
    <path clip-path="url(#p0aa8179680)" d="M 59.9156 116.162 
L 65.2724 116.162 
L 65.2724 102.77 
L 59.9156 102.77 
z
" style="fill:#f90600;"/>
   </g>
   <g id="patch_42">
    <path clip-path="url(#p0aa8179680)" d="M 73.5308 113.604203 
L 85.1372 113.604203 
L 85.1372 105.327797 
L 73.5308 105.327797 
z
" style="fill:#5da200;stroke:#000000;stroke-linejoin:miter;"/>
   </g>
   <g id="patch_43">
    <path clip-path="url(#p0aa8179680)" d="M 89.8244 113.58159 
L 102.3236 113.58159 
L 102.3236 105.35041 
L 89.8244 105.35041 
z
" style="fill:#57a800;stroke:#000000;stroke-linejoin:miter;"/>
   </g>
   <g id="patch_44">
    <path clip-path="url(#p0aa8179680)" d="M 106.118 113.620786 
L 119.51 113.620786 
L 119.51 105.311214 
L 106.118 105.311214 
z
" style="fill:#50af00;stroke:#000000;stroke-linejoin:miter;"/>
   </g>
   <g id="patch_45">
    <path clip-path="url(#p0aa8179680)" d="M 23.374571 98.22405 
L 34.853429 98.22405 
L 34.853429 87.22795 
L 23.374571 87.22795 
z
" style="fill:#ff0000;"/>
   </g>
   <g id="patch_46">
    <path clip-path="url(#p0aa8179680)" d="M 40.114571 98.22405 
L 51.593429 98.22405 
L 51.593429 87.22795 
L 40.114571 87.22795 
z
" style="fill:#ff0000;"/>
   </g>
   <g id="patch_47">
    <path clip-path="url(#p0aa8179680)" d="M 55.898 97.85297 
L 69.29 97.85297 
L 69.29 87.59903 
L 55.898 87.59903 
z
" style="fill:#ff0000;stroke:#000000;stroke-linejoin:miter;"/>
   </g>
   <g id="patch_48">
    <path clip-path="url(#p0aa8179680)" d="M 74.87 99.422 
L 83.798 99.422 
L 83.798 86.03 
L 74.87 86.03 
z
" style="fill:#7e8100;stroke:#000000;stroke-linejoin:miter;"/>
   </g>
   <g id="patch_49">
    <path clip-path="url(#p0aa8179680)" d="M 91.291143 99.269517 
L 100.856857 99.269517 
L 100.856857 86.182483 
L 91.291143 86.182483 
z
" style="fill:#798600;stroke:#000000;stroke-linejoin:miter;"/>
   </g>
   <g id="patch_50">
    <path clip-path="url(#p0aa8179680)" d="M 107.393429 98.677133 
L 118.234571 98.677133 
L 118.234571 86.774867 
L 107.393429 86.774867 
z
" style="fill:#758a00;stroke:#000000;stroke-linejoin:miter;"/>
   </g>
   <g id="patch_51">
    <path clip-path="url(#p0aa8179680)" d="M 22.418 82.682 
L 35.81 82.682 
L 35.81 69.29 
L 22.418 69.29 
z
" style="fill:#00ff00;"/>
   </g>
   <g id="patch_52">
    <path clip-path="url(#p0aa8179680)" d="M 39.158 82.682 
L 52.55 82.682 
L 52.55 69.29 
L 39.158 69.29 
z
" style="fill:#00ff00;"/>
   </g>
   <g id="patch_53">
    <path clip-path="url(#p0aa8179680)" d="M 22.418 65.942 
L 35.81 65.942 
L 35.81 52.55 
L 22.418 52.55 
z
" style="fill:#00ff00;"/>
   </g>
   <g id="patch_54">
    <path clip-path="url(#p0aa8179680)" d="M 39.158 65.942 
L 52.55 65.942 
L 52.55 52.55 
L 39.158 52.55 
z
" style="fill:#00ff00;"/>
   </g>
   <g id="matplotlib.axis_1">
    <g id="xtick_1">
     <g id="line2d_1">
      <defs>
       <path d="M 0 0 
L 0 3.5 
" id="m78c35ee33f" style="stroke:#000000;stroke-width:0.8;"/>
      </defs>
      <g>
       <use style="stroke:#000000;stroke-width:0.8;" x="10.7" xlink:href="#m78c35ee33f" y="295.28"/>
      </g>
     </g>
    </g>
    <g id="xtick_2">
     <g id="line2d_2">
      <g>
       <use style="stroke:#000000;stroke-width:0.8;" x="27.44" xlink:href="#m78c35ee33f" y="295.28"/>
      </g>
     </g>
     <g id="text_1">
      <!-- v1.1 -->
      <defs>
       <path d="M 2.984375 54.6875 
L 12.5 54.6875 
L 29.59375 8.796875 
L 46.6875 54.6875 
L 56.203125 54.6875 
L 35.6875 0 
L 23.484375 0 
z
" id="DejaVuSans-76"/>
       <path d="M 12.40625 8.296875 
L 28.515625 8.296875 
L 28.515625 63.921875 
L 10.984375 60.40625 
L 10.984375 69.390625 
L 28.421875 72.90625 
L 38.28125 72.90625 
L 38.28125 8.296875 
L 54.390625 8.296875 
L 54.390625 0 
L 12.40625 0 
z
" id="DejaVuSans-31"/>
       <path d="M 10.6875 12.40625 
L 21 12.40625 
L 21 0 
L 10.6875 0 
z
" id="DejaVuSans-2e"/>
      </defs>
      <g transform="translate(30.199375 324.101875)rotate(-90)scale(0.1 -0.1)">
       <use xlink:href="#DejaVuSans-76"/>
       <use x="59.179688" xlink:href="#DejaVuSans-31"/>
       <use x="122.802734" xlink:href="#DejaVuSans-2e"/>
       <use x="154.589844" xlink:href="#DejaVuSans-31"/>
      </g>
     </g>
    </g>
    <g id="xtick_3">
     <g id="line2d_3">
      <g>
       <use style="stroke:#000000;stroke-width:0.8;" x="44.18" xlink:href="#m78c35ee33f" y="295.28"/>
      </g>
     </g>
     <g id="text_2">
      <!-- v1.1.0.1 -->
      <defs>
       <path d="M 31.78125 66.40625 
Q 24.171875 66.40625 20.328125 58.90625 
Q 16.5 51.421875 16.5 36.375 
Q 16.5 21.390625 20.328125 13.890625 
Q 24.171875 6.390625 31.78125 6.390625 
Q 39.453125 6.390625 43.28125 13.890625 
Q 47.125 21.390625 47.125 36.375 
Q 47.125 51.421875 43.28125 58.90625 
Q 39.453125 66.40625 31.78125 66.40625 
z
M 31.78125 74.21875 
Q 44.046875 74.21875 50.515625 64.515625 
Q 56.984375 54.828125 56.984375 36.375 
Q 56.984375 17.96875 50.515625 8.265625 
Q 44.046875 -1.421875 31.78125 -1.421875 
Q 19.53125 -1.421875 13.0625 8.265625 
Q 6.59375 17.96875 6.59375 36.375 
Q 6.59375 54.828125 13.0625 64.515625 
Q 19.53125 74.21875 31.78125 74.21875 
z
" id="DejaVuSans-30"/>
      </defs>
      <g transform="translate(46.939375 343.183125)rotate(-90)scale(0.1 -0.1)">
       <use xlink:href="#DejaVuSans-76"/>
       <use x="59.179688" xlink:href="#DejaVuSans-31"/>
       <use x="122.802734" xlink:href="#DejaVuSans-2e"/>
       <use x="154.589844" xlink:href="#DejaVuSans-31"/>
       <use x="218.212891" xlink:href="#DejaVuSans-2e"/>
       <use x="250" xlink:href="#DejaVuSans-30"/>
       <use x="313.623047" xlink:href="#DejaVuSans-2e"/>
       <use x="345.410156" xlink:href="#DejaVuSans-31"/>
      </g>
     </g>
    </g>
    <g id="xtick_4">
     <g id="line2d_4">
      <g>
       <use style="stroke:#000000;stroke-width:0.8;" x="60.92" xlink:href="#m78c35ee33f" y="295.28"/>
      </g>
     </g>
     <g id="text_3">
      <!-- v1.3 -->
      <defs>
       <path d="M 40.578125 39.3125 
Q 47.65625 37.796875 51.625 33 
Q 55.609375 28.21875 55.609375 21.1875 
Q 55.609375 10.40625 48.1875 4.484375 
Q 40.765625 -1.421875 27.09375 -1.421875 
Q 22.515625 -1.421875 17.65625 -0.515625 
Q 12.796875 0.390625 7.625 2.203125 
L 7.625 11.71875 
Q 11.71875 9.328125 16.59375 8.109375 
Q 21.484375 6.890625 26.8125 6.890625 
Q 36.078125 6.890625 40.9375 10.546875 
Q 45.796875 14.203125 45.796875 21.1875 
Q 45.796875 27.640625 41.28125 31.265625 
Q 36.765625 34.90625 28.71875 34.90625 
L 20.21875 34.90625 
L 20.21875 43.015625 
L 29.109375 43.015625 
Q 36.375 43.015625 40.234375 45.921875 
Q 44.09375 48.828125 44.09375 54.296875 
Q 44.09375 59.90625 40.109375 62.90625 
Q 36.140625 65.921875 28.71875 65.921875 
Q 24.65625 65.921875 20.015625 65.03125 
Q 15.375 64.15625 9.8125 62.3125 
L 9.8125 71.09375 
Q 15.4375 72.65625 20.34375 73.4375 
Q 25.25 74.21875 29.59375 74.21875 
Q 40.828125 74.21875 47.359375 69.109375 
Q 53.90625 64.015625 53.90625 55.328125 
Q 53.90625 49.265625 50.4375 45.09375 
Q 46.96875 40.921875 40.578125 39.3125 
z
" id="DejaVuSans-33"/>
      </defs>
      <g transform="translate(63.679375 324.101875)rotate(-90)scale(0.1 -0.1)">
       <use xlink:href="#DejaVuSans-76"/>
       <use x="59.179688" xlink:href="#DejaVuSans-31"/>
       <use x="122.802734" xlink:href="#DejaVuSans-2e"/>
       <use x="154.589844" xlink:href="#DejaVuSans-33"/>
      </g>
     </g>
    </g>
    <g id="xtick_5">
     <g id="line2d_5">
      <g>
       <use style="stroke:#000000;stroke-width:0.8;" x="77.66" xlink:href="#m78c35ee33f" y="295.28"/>
      </g>
     </g>
     <g id="text_4">
      <!-- v1.4 -->
      <defs>
       <path d="M 37.796875 64.3125 
L 12.890625 25.390625 
L 37.796875 25.390625 
z
M 35.203125 72.90625 
L 47.609375 72.90625 
L 47.609375 25.390625 
L 58.015625 25.390625 
L 58.015625 17.1875 
L 47.609375 17.1875 
L 47.609375 0 
L 37.796875 0 
L 37.796875 17.1875 
L 4.890625 17.1875 
L 4.890625 26.703125 
z
" id="DejaVuSans-34"/>
      </defs>
      <g transform="translate(80.419375 324.101875)rotate(-90)scale(0.1 -0.1)">
       <use xlink:href="#DejaVuSans-76"/>
       <use x="59.179688" xlink:href="#DejaVuSans-31"/>
       <use x="122.802734" xlink:href="#DejaVuSans-2e"/>
       <use x="154.589844" xlink:href="#DejaVuSans-34"/>
      </g>
     </g>
    </g>
    <g id="xtick_6">
     <g id="line2d_6">
      <g>
       <use style="stroke:#000000;stroke-width:0.8;" x="94.4" xlink:href="#m78c35ee33f" y="295.28"/>
      </g>
     </g>
     <g id="text_5">
      <!-- v1.5.0-alpha -->
      <defs>
       <path d="M 10.796875 72.90625 
L 49.515625 72.90625 
L 49.515625 64.59375 
L 19.828125 64.59375 
L 19.828125 46.734375 
Q 21.96875 47.46875 24.109375 47.828125 
Q 26.265625 48.1875 28.421875 48.1875 
Q 40.625 48.1875 47.75 41.5 
Q 54.890625 34.8125 54.890625 23.390625 
Q 54.890625 11.625 47.5625 5.09375 
Q 40.234375 -1.421875 26.90625 -1.421875 
Q 22.3125 -1.421875 17.546875 -0.640625 
Q 12.796875 0.140625 7.71875 1.703125 
L 7.71875 11.625 
Q 12.109375 9.234375 16.796875 8.0625 
Q 21.484375 6.890625 26.703125 6.890625 
Q 35.15625 6.890625 40.078125 11.328125 
Q 45.015625 15.765625 45.015625 23.390625 
Q 45.015625 31 40.078125 35.4375 
Q 35.15625 39.890625 26.703125 39.890625 
Q 22.75 39.890625 18.8125 39.015625 
Q 14.890625 38.140625 10.796875 36.28125 
z
" id="DejaVuSans-35"/>
       <path d="M 4.890625 31.390625 
L 31.203125 31.390625 
L 31.203125 23.390625 
L 4.890625 23.390625 
z
" id="DejaVuSans-2d"/>
       <path d="M 34.28125 27.484375 
Q 23.390625 27.484375 19.1875 25 
Q 14.984375 22.515625 14.984375 16.5 
Q 14.984375 11.71875 18.140625 8.90625 
Q 21.296875 6.109375 26.703125 6.109375 
Q 34.1875 6.109375 38.703125 11.40625 
Q 43.21875 16.703125 43.21875 25.484375 
L 43.21875 27.484375 
z
M 52.203125 31.203125 
L 52.203125 0 
L 43.21875 0 
L 43.21875 8.296875 
Q 40.140625 3.328125 35.546875 0.953125 
Q 30.953125 -1.421875 24.3125 -1.421875 
Q 15.921875 -1.421875 10.953125 3.296875 
Q 6 8.015625 6 15.921875 
Q 6 25.140625 12.171875 29.828125 
Q 18.359375 34.515625 30.609375 34.515625 
L 43.21875 34.515625 
L 43.21875 35.40625 
Q 43.21875 41.609375 39.140625 45 
Q 35.0625 48.390625 27.6875 48.390625 
Q 23 48.390625 18.546875 47.265625 
Q 14.109375 46.140625 10.015625 43.890625 
L 10.015625 52.203125 
Q 14.9375 54.109375 19.578125 55.046875 
Q 24.21875 56 28.609375 56 
Q 40.484375 56 46.34375 49.84375 
Q 52.203125 43.703125 52.203125 31.203125 
z
" id="DejaVuSans-61"/>
       <path d="M 9.421875 75.984375 
L 18.40625 75.984375 
L 18.40625 0 
L 9.421875 0 
z
" id="DejaVuSans-6c"/>
       <path d="M 18.109375 8.203125 
L 18.109375 -20.796875 
L 9.078125 -20.796875 
L 9.078125 54.6875 
L 18.109375 54.6875 
L 18.109375 46.390625 
Q 20.953125 51.265625 25.265625 53.625 
Q 29.59375 56 35.59375 56 
Q 45.5625 56 51.78125 48.09375 
Q 58.015625 40.1875 58.015625 27.296875 
Q 58.015625 14.40625 51.78125 6.484375 
Q 45.5625 -1.421875 35.59375 -1.421875 
Q 29.59375 -1.421875 25.265625 0.953125 
Q 20.953125 3.328125 18.109375 8.203125 
z
M 48.6875 27.296875 
Q 48.6875 37.203125 44.609375 42.84375 
Q 40.53125 48.484375 33.40625 48.484375 
Q 26.265625 48.484375 22.1875 42.84375 
Q 18.109375 37.203125 18.109375 27.296875 
Q 18.109375 17.390625 22.1875 11.75 
Q 26.265625 6.109375 33.40625 6.109375 
Q 40.53125 6.109375 44.609375 11.75 
Q 48.6875 17.390625 48.6875 27.296875 
z
" id="DejaVuSans-70"/>
       <path d="M 54.890625 33.015625 
L 54.890625 0 
L 45.90625 0 
L 45.90625 32.71875 
Q 45.90625 40.484375 42.875 44.328125 
Q 39.84375 48.1875 33.796875 48.1875 
Q 26.515625 48.1875 22.3125 43.546875 
Q 18.109375 38.921875 18.109375 30.90625 
L 18.109375 0 
L 9.078125 0 
L 9.078125 75.984375 
L 18.109375 75.984375 
L 18.109375 46.1875 
Q 21.34375 51.125 25.703125 53.5625 
Q 30.078125 56 35.796875 56 
Q 45.21875 56 50.046875 50.171875 
Q 54.890625 44.34375 54.890625 33.015625 
z
" id="DejaVuSans-68"/>
      </defs>
      <g transform="translate(97.159375 364.970625)rotate(-90)scale(0.1 -0.1)">
       <use xlink:href="#DejaVuSans-76"/>
       <use x="59.179688" xlink:href="#DejaVuSans-31"/>
       <use x="122.802734" xlink:href="#DejaVuSans-2e"/>
       <use x="154.589844" xlink:href="#DejaVuSans-35"/>
       <use x="218.212891" xlink:href="#DejaVuSans-2e"/>
       <use x="250" xlink:href="#DejaVuSans-30"/>
       <use x="313.623047" xlink:href="#DejaVuSans-2d"/>
       <use x="349.707031" xlink:href="#DejaVuSans-61"/>
       <use x="410.986328" xlink:href="#DejaVuSans-6c"/>
       <use x="438.769531" xlink:href="#DejaVuSans-70"/>
       <use x="502.246094" xlink:href="#DejaVuSans-68"/>
       <use x="565.625" xlink:href="#DejaVuSans-61"/>
      </g>
     </g>
    </g>
    <g id="xtick_7">
     <g id="line2d_7">
      <g>
       <use style="stroke:#000000;stroke-width:0.8;" x="111.14" xlink:href="#m78c35ee33f" y="295.28"/>
      </g>
     </g>
     <g id="text_6">
      <!-- v1.5.0-beta -->
      <defs>
       <path d="M 48.6875 27.296875 
Q 48.6875 37.203125 44.609375 42.84375 
Q 40.53125 48.484375 33.40625 48.484375 
Q 26.265625 48.484375 22.1875 42.84375 
Q 18.109375 37.203125 18.109375 27.296875 
Q 18.109375 17.390625 22.1875 11.75 
Q 26.265625 6.109375 33.40625 6.109375 
Q 40.53125 6.109375 44.609375 11.75 
Q 48.6875 17.390625 48.6875 27.296875 
z
M 18.109375 46.390625 
Q 20.953125 51.265625 25.265625 53.625 
Q 29.59375 56 35.59375 56 
Q 45.5625 56 51.78125 48.09375 
Q 58.015625 40.1875 58.015625 27.296875 
Q 58.015625 14.40625 51.78125 6.484375 
Q 45.5625 -1.421875 35.59375 -1.421875 
Q 29.59375 -1.421875 25.265625 0.953125 
Q 20.953125 3.328125 18.109375 8.203125 
L 18.109375 0 
L 9.078125 0 
L 9.078125 75.984375 
L 18.109375 75.984375 
z
" id="DejaVuSans-62"/>
       <path d="M 56.203125 29.59375 
L 56.203125 25.203125 
L 14.890625 25.203125 
Q 15.484375 15.921875 20.484375 11.0625 
Q 25.484375 6.203125 34.421875 6.203125 
Q 39.59375 6.203125 44.453125 7.46875 
Q 49.3125 8.734375 54.109375 11.28125 
L 54.109375 2.78125 
Q 49.265625 0.734375 44.1875 -0.34375 
Q 39.109375 -1.421875 33.890625 -1.421875 
Q 20.796875 -1.421875 13.15625 6.1875 
Q 5.515625 13.8125 5.515625 26.8125 
Q 5.515625 40.234375 12.765625 48.109375 
Q 20.015625 56 32.328125 56 
Q 43.359375 56 49.78125 48.890625 
Q 56.203125 41.796875 56.203125 29.59375 
z
M 47.21875 32.234375 
Q 47.125 39.59375 43.09375 43.984375 
Q 39.0625 48.390625 32.421875 48.390625 
Q 24.90625 48.390625 20.390625 44.140625 
Q 15.875 39.890625 15.1875 32.171875 
z
" id="DejaVuSans-65"/>
       <path d="M 18.3125 70.21875 
L 18.3125 54.6875 
L 36.8125 54.6875 
L 36.8125 47.703125 
L 18.3125 47.703125 
L 18.3125 18.015625 
Q 18.3125 11.328125 20.140625 9.421875 
Q 21.96875 7.515625 27.59375 7.515625 
L 36.8125 7.515625 
L 36.8125 0 
L 27.59375 0 
Q 17.1875 0 13.234375 3.875 
Q 9.28125 7.765625 9.28125 18.015625 
L 9.28125 47.703125 
L 2.6875 47.703125 
L 2.6875 54.6875 
L 9.28125 54.6875 
L 9.28125 70.21875 
z
" id="DejaVuSans-74"/>
      </defs>
      <g transform="translate(113.899375 359.800312)rotate(-90)scale(0.1 -0.1)">
       <use xlink:href="#DejaVuSans-76"/>
       <use x="59.179688" xlink:href="#DejaVuSans-31"/>
       <use x="122.802734" xlink:href="#DejaVuSans-2e"/>
       <use x="154.589844" xlink:href="#DejaVuSans-35"/>
       <use x="218.212891" xlink:href="#DejaVuSans-2e"/>
       <use x="250" xlink:href="#DejaVuSans-30"/>
       <use x="313.623047" xlink:href="#DejaVuSans-2d"/>
       <use x="349.707031" xlink:href="#DejaVuSans-62"/>
       <use x="413.183594" xlink:href="#DejaVuSans-65"/>
       <use x="474.707031" xlink:href="#DejaVuSans-74"/>
       <use x="513.916016" xlink:href="#DejaVuSans-61"/>
      </g>
     </g>
    </g>
   </g>
   <g id="matplotlib.axis_2"/>
   <g id="patch_55">
    <path d="M 10.7 295.28 
L 10.7 10.7 
" style="fill:none;stroke:#000000;stroke-linecap:square;stroke-linejoin:miter;stroke-width:0.8;"/>
   </g>
   <g id="patch_56">
    <path d="M 144.62 295.28 
L 144.62 10.7 
" style="fill:none;stroke:#000000;stroke-linecap:square;stroke-linejoin:miter;stroke-width:0.8;"/>
   </g>
   <g id="patch_57">
    <path d="M 10.7 295.28 
L 144.62 295.28 
" style="fill:none;stroke:#000000;stroke-linecap:square;stroke-linejoin:miter;stroke-width:0.8;"/>
   </g>
   <g id="patch_58">
    <path d="M 10.7 10.7 
L 144.62 10.7 
" style="fill:none;stroke:#000000;stroke-linecap:square;stroke-linejoin:miter;stroke-width:0.8;"/>
   </g>
   <g id="text_7">
    <!-- indentation.ts -->
    <defs>
     <path d="M 9.421875 54.6875 
L 18.40625 54.6875 
L 18.40625 0 
L 9.421875 0 
z
M 9.421875 75.984375 
L 18.40625 75.984375 
L 18.40625 64.59375 
L 9.421875 64.59375 
z
" id="DejaVuSans-69"/>
     <path d="M 54.890625 33.015625 
L 54.890625 0 
L 45.90625 0 
L 45.90625 32.71875 
Q 45.90625 40.484375 42.875 44.328125 
Q 39.84375 48.1875 33.796875 48.1875 
Q 26.515625 48.1875 22.3125 43.546875 
Q 18.109375 38.921875 18.109375 30.90625 
L 18.109375 0 
L 9.078125 0 
L 9.078125 54.6875 
L 18.109375 54.6875 
L 18.109375 46.1875 
Q 21.34375 51.125 25.703125 53.5625 
Q 30.078125 56 35.796875 56 
Q 45.21875 56 50.046875 50.171875 
Q 54.890625 44.34375 54.890625 33.015625 
z
" id="DejaVuSans-6e"/>
     <path d="M 45.40625 46.390625 
L 45.40625 75.984375 
L 54.390625 75.984375 
L 54.390625 0 
L 45.40625 0 
L 45.40625 8.203125 
Q 42.578125 3.328125 38.25 0.953125 
Q 33.9375 -1.421875 27.875 -1.421875 
Q 17.96875 -1.421875 11.734375 6.484375 
Q 5.515625 14.40625 5.515625 27.296875 
Q 5.515625 40.1875 11.734375 48.09375 
Q 17.96875 56 27.875 56 
Q 33.9375 56 38.25 53.625 
Q 42.578125 51.265625 45.40625 46.390625 
z
M 14.796875 27.296875 
Q 14.796875 17.390625 18.875 11.75 
Q 22.953125 6.109375 30.078125 6.109375 
Q 37.203125 6.109375 41.296875 11.75 
Q 45.40625 17.390625 45.40625 27.296875 
Q 45.40625 37.203125 41.296875 42.84375 
Q 37.203125 48.484375 30.078125 48.484375 
Q 22.953125 48.484375 18.875 42.84375 
Q 14.796875 37.203125 14.796875 27.296875 
z
" id="DejaVuSans-64"/>
     <path d="M 30.609375 48.390625 
Q 23.390625 48.390625 19.1875 42.75 
Q 14.984375 37.109375 14.984375 27.296875 
Q 14.984375 17.484375 19.15625 11.84375 
Q 23.34375 6.203125 30.609375 6.203125 
Q 37.796875 6.203125 41.984375 11.859375 
Q 46.1875 17.53125 46.1875 27.296875 
Q 46.1875 37.015625 41.984375 42.703125 
Q 37.796875 48.390625 30.609375 48.390625 
z
M 30.609375 56 
Q 42.328125 56 49.015625 48.375 
Q 55.71875 40.765625 55.71875 27.296875 
Q 55.71875 13.875 49.015625 6.21875 
Q 42.328125 -1.421875 30.609375 -1.421875 
Q 18.84375 -1.421875 12.171875 6.21875 
Q 5.515625 13.875 5.515625 27.296875 
Q 5.515625 40.765625 12.171875 48.375 
Q 18.84375 56 30.609375 56 
z
" id="DejaVuSans-6f"/>
     <path d="M 44.28125 53.078125 
L 44.28125 44.578125 
Q 40.484375 46.53125 36.375 47.5 
Q 32.28125 48.484375 27.875 48.484375 
Q 21.1875 48.484375 17.84375 46.4375 
Q 14.5 44.390625 14.5 40.28125 
Q 14.5 37.15625 16.890625 35.375 
Q 19.28125 33.59375 26.515625 31.984375 
L 29.59375 31.296875 
Q 39.15625 29.25 43.1875 25.515625 
Q 47.21875 21.78125 47.21875 15.09375 
Q 47.21875 7.46875 41.1875 3.015625 
Q 35.15625 -1.421875 24.609375 -1.421875 
Q 20.21875 -1.421875 15.453125 -0.5625 
Q 10.6875 0.296875 5.421875 2 
L 5.421875 11.28125 
Q 10.40625 8.6875 15.234375 7.390625 
Q 20.0625 6.109375 24.8125 6.109375 
Q 31.15625 6.109375 34.5625 8.28125 
Q 37.984375 10.453125 37.984375 14.40625 
Q 37.984375 18.0625 35.515625 20.015625 
Q 33.0625 21.96875 24.703125 23.78125 
L 21.578125 24.515625 
Q 13.234375 26.265625 9.515625 29.90625 
Q 5.8125 33.546875 5.8125 39.890625 
Q 5.8125 47.609375 11.28125 51.796875 
Q 16.75 56 26.8125 56 
Q 31.78125 56 36.171875 55.265625 
Q 40.578125 54.546875 44.28125 53.078125 
z
" id="DejaVuSans-73"/>
    </defs>
    <g transform="translate(161.36 278.54)scale(0.12 -0.12)">
     <use xlink:href="#DejaVuSans-69"/>
     <use x="27.783203" xlink:href="#DejaVuSans-6e"/>
     <use x="91.162109" xlink:href="#DejaVuSans-64"/>
     <use x="154.638672" xlink:href="#DejaVuSans-65"/>
     <use x="216.162109" xlink:href="#DejaVuSans-6e"/>
     <use x="279.541016" xlink:href="#DejaVuSans-74"/>
     <use x="318.75" xlink:href="#DejaVuSans-61"/>
     <use x="380.029297" xlink:href="#DejaVuSans-74"/>
     <use x="419.238281" xlink:href="#DejaVuSans-69"/>
     <use x="447.021484" xlink:href="#DejaVuSans-6f"/>
     <use x="508.203125" xlink:href="#DejaVuSans-6e"/>
     <use x="571.582031" xlink:href="#DejaVuSans-2e"/>
     <use x="603.369141" xlink:href="#DejaVuSans-74"/>
     <use x="642.578125" xlink:href="#DejaVuSans-73"/>
    </g>
   </g>
   <g id="text_8">
    <!-- signatureInfoHelpers.ts -->
    <defs>
     <path d="M 45.40625 27.984375 
Q 45.40625 37.75 41.375 43.109375 
Q 37.359375 48.484375 30.078125 48.484375 
Q 22.859375 48.484375 18.828125 43.109375 
Q 14.796875 37.75 14.796875 27.984375 
Q 14.796875 18.265625 18.828125 12.890625 
Q 22.859375 7.515625 30.078125 7.515625 
Q 37.359375 7.515625 41.375 12.890625 
Q 45.40625 18.265625 45.40625 27.984375 
z
M 54.390625 6.78125 
Q 54.390625 -7.171875 48.1875 -13.984375 
Q 42 -20.796875 29.203125 -20.796875 
Q 24.46875 -20.796875 20.265625 -20.09375 
Q 16.0625 -19.390625 12.109375 -17.921875 
L 12.109375 -9.1875 
Q 16.0625 -11.328125 19.921875 -12.34375 
Q 23.78125 -13.375 27.78125 -13.375 
Q 36.625 -13.375 41.015625 -8.765625 
Q 45.40625 -4.15625 45.40625 5.171875 
L 45.40625 9.625 
Q 42.625 4.78125 38.28125 2.390625 
Q 33.9375 0 27.875 0 
Q 17.828125 0 11.671875 7.65625 
Q 5.515625 15.328125 5.515625 27.984375 
Q 5.515625 40.671875 11.671875 48.328125 
Q 17.828125 56 27.875 56 
Q 33.9375 56 38.28125 53.609375 
Q 42.625 51.21875 45.40625 46.390625 
L 45.40625 54.6875 
L 54.390625 54.6875 
z
" id="DejaVuSans-67"/>
     <path d="M 8.5 21.578125 
L 8.5 54.6875 
L 17.484375 54.6875 
L 17.484375 21.921875 
Q 17.484375 14.15625 20.5 10.265625 
Q 23.53125 6.390625 29.59375 6.390625 
Q 36.859375 6.390625 41.078125 11.03125 
Q 45.3125 15.671875 45.3125 23.6875 
L 45.3125 54.6875 
L 54.296875 54.6875 
L 54.296875 0 
L 45.3125 0 
L 45.3125 8.40625 
Q 42.046875 3.421875 37.71875 1 
Q 33.40625 -1.421875 27.6875 -1.421875 
Q 18.265625 -1.421875 13.375 4.4375 
Q 8.5 10.296875 8.5 21.578125 
z
M 31.109375 56 
z
" id="DejaVuSans-75"/>
     <path d="M 41.109375 46.296875 
Q 39.59375 47.171875 37.8125 47.578125 
Q 36.03125 48 33.890625 48 
Q 26.265625 48 22.1875 43.046875 
Q 18.109375 38.09375 18.109375 28.8125 
L 18.109375 0 
L 9.078125 0 
L 9.078125 54.6875 
L 18.109375 54.6875 
L 18.109375 46.1875 
Q 20.953125 51.171875 25.484375 53.578125 
Q 30.03125 56 36.53125 56 
Q 37.453125 56 38.578125 55.875 
Q 39.703125 55.765625 41.0625 55.515625 
z
" id="DejaVuSans-72"/>
     <path d="M 9.8125 72.90625 
L 19.671875 72.90625 
L 19.671875 0 
L 9.8125 0 
z
" id="DejaVuSans-49"/>
     <path d="M 37.109375 75.984375 
L 37.109375 68.5 
L 28.515625 68.5 
Q 23.6875 68.5 21.796875 66.546875 
Q 19.921875 64.59375 19.921875 59.515625 
L 19.921875 54.6875 
L 34.71875 54.6875 
L 34.71875 47.703125 
L 19.921875 47.703125 
L 19.921875 0 
L 10.890625 0 
L 10.890625 47.703125 
L 2.296875 47.703125 
L 2.296875 54.6875 
L 10.890625 54.6875 
L 10.890625 58.5 
Q 10.890625 67.625 15.140625 71.796875 
Q 19.390625 75.984375 28.609375 75.984375 
z
" id="DejaVuSans-66"/>
     <path d="M 9.8125 72.90625 
L 19.671875 72.90625 
L 19.671875 43.015625 
L 55.515625 43.015625 
L 55.515625 72.90625 
L 65.375 72.90625 
L 65.375 0 
L 55.515625 0 
L 55.515625 34.71875 
L 19.671875 34.71875 
L 19.671875 0 
L 9.8125 0 
z
" id="DejaVuSans-48"/>
    </defs>
    <g transform="translate(161.36 261.8)scale(0.12 -0.12)">
     <use xlink:href="#DejaVuSans-73"/>
     <use x="52.099609" xlink:href="#DejaVuSans-69"/>
     <use x="79.882812" xlink:href="#DejaVuSans-67"/>
     <use x="143.359375" xlink:href="#DejaVuSans-6e"/>
     <use x="206.738281" xlink:href="#DejaVuSans-61"/>
     <use x="268.017578" xlink:href="#DejaVuSans-74"/>
     <use x="307.226562" xlink:href="#DejaVuSans-75"/>
     <use x="370.605469" xlink:href="#DejaVuSans-72"/>
     <use x="411.6875" xlink:href="#DejaVuSans-65"/>
     <use x="473.210938" xlink:href="#DejaVuSans-49"/>
     <use x="502.703125" xlink:href="#DejaVuSans-6e"/>
     <use x="566.082031" xlink:href="#DejaVuSans-66"/>
     <use x="601.287109" xlink:href="#DejaVuSans-6f"/>
     <use x="662.46875" xlink:href="#DejaVuSans-48"/>
     <use x="737.664062" xlink:href="#DejaVuSans-65"/>
     <use x="799.1875" xlink:href="#DejaVuSans-6c"/>
     <use x="826.970703" xlink:href="#DejaVuSans-70"/>
     <use x="890.447266" xlink:href="#DejaVuSans-65"/>
     <use x="951.970703" xlink:href="#DejaVuSans-72"/>
     <use x="993.083984" xlink:href="#DejaVuSans-73"/>
     <use x="1045.183594" xlink:href="#DejaVuSans-2e"/>
     <use x="1076.970703" xlink:href="#DejaVuSans-74"/>
     <use x="1116.179688" xlink:href="#DejaVuSans-73"/>
    </g>
   </g>
   <g id="text_9">
    <!-- breakpoints.ts -->
    <defs>
     <path d="M 9.078125 75.984375 
L 18.109375 75.984375 
L 18.109375 31.109375 
L 44.921875 54.6875 
L 56.390625 54.6875 
L 27.390625 29.109375 
L 57.625 0 
L 45.90625 0 
L 18.109375 26.703125 
L 18.109375 0 
L 9.078125 0 
z
" id="DejaVuSans-6b"/>
    </defs>
    <g transform="translate(161.36 245.06)scale(0.12 -0.12)">
     <use xlink:href="#DejaVuSans-62"/>
     <use x="63.476562" xlink:href="#DejaVuSans-72"/>
     <use x="104.558594" xlink:href="#DejaVuSans-65"/>
     <use x="166.082031" xlink:href="#DejaVuSans-61"/>
     <use x="227.361328" xlink:href="#DejaVuSans-6b"/>
     <use x="285.271484" xlink:href="#DejaVuSans-70"/>
     <use x="348.748047" xlink:href="#DejaVuSans-6f"/>
     <use x="409.929688" xlink:href="#DejaVuSans-69"/>
     <use x="437.712891" xlink:href="#DejaVuSans-6e"/>
     <use x="501.091797" xlink:href="#DejaVuSans-74"/>
     <use x="540.300781" xlink:href="#DejaVuSans-73"/>
     <use x="592.400391" xlink:href="#DejaVuSans-2e"/>
     <use x="624.1875" xlink:href="#DejaVuSans-74"/>
     <use x="663.396484" xlink:href="#DejaVuSans-73"/>
    </g>
   </g>
   <g id="text_10">
    <!-- findReferenceHelpers.ts -->
    <defs>
     <path d="M 44.390625 34.1875 
Q 47.5625 33.109375 50.5625 29.59375 
Q 53.5625 26.078125 56.59375 19.921875 
L 66.609375 0 
L 56 0 
L 46.6875 18.703125 
Q 43.0625 26.03125 39.671875 28.421875 
Q 36.28125 30.8125 30.421875 30.8125 
L 19.671875 30.8125 
L 19.671875 0 
L 9.8125 0 
L 9.8125 72.90625 
L 32.078125 72.90625 
Q 44.578125 72.90625 50.734375 67.671875 
Q 56.890625 62.453125 56.890625 51.90625 
Q 56.890625 45.015625 53.6875 40.46875 
Q 50.484375 35.9375 44.390625 34.1875 
z
M 19.671875 64.796875 
L 19.671875 38.921875 
L 32.078125 38.921875 
Q 39.203125 38.921875 42.84375 42.21875 
Q 46.484375 45.515625 46.484375 51.90625 
Q 46.484375 58.296875 42.84375 61.546875 
Q 39.203125 64.796875 32.078125 64.796875 
z
" id="DejaVuSans-52"/>
     <path d="M 48.78125 52.59375 
L 48.78125 44.1875 
Q 44.96875 46.296875 41.140625 47.34375 
Q 37.3125 48.390625 33.40625 48.390625 
Q 24.65625 48.390625 19.8125 42.84375 
Q 14.984375 37.3125 14.984375 27.296875 
Q 14.984375 17.28125 19.8125 11.734375 
Q 24.65625 6.203125 33.40625 6.203125 
Q 37.3125 6.203125 41.140625 7.25 
Q 44.96875 8.296875 48.78125 10.40625 
L 48.78125 2.09375 
Q 45.015625 0.34375 40.984375 -0.53125 
Q 36.96875 -1.421875 32.421875 -1.421875 
Q 20.0625 -1.421875 12.78125 6.34375 
Q 5.515625 14.109375 5.515625 27.296875 
Q 5.515625 40.671875 12.859375 48.328125 
Q 20.21875 56 33.015625 56 
Q 37.15625 56 41.109375 55.140625 
Q 45.0625 54.296875 48.78125 52.59375 
z
" id="DejaVuSans-63"/>
    </defs>
    <g transform="translate(161.36 228.32)scale(0.12 -0.12)">
     <use xlink:href="#DejaVuSans-66"/>
     <use x="35.205078" xlink:href="#DejaVuSans-69"/>
     <use x="62.988281" xlink:href="#DejaVuSans-6e"/>
     <use x="126.367188" xlink:href="#DejaVuSans-64"/>
     <use x="189.84375" xlink:href="#DejaVuSans-52"/>
     <use x="259.263672" xlink:href="#DejaVuSans-65"/>
     <use x="320.787109" xlink:href="#DejaVuSans-66"/>
     <use x="355.992188" xlink:href="#DejaVuSans-65"/>
     <use x="417.515625" xlink:href="#DejaVuSans-72"/>
     <use x="458.597656" xlink:href="#DejaVuSans-65"/>
     <use x="520.121094" xlink:href="#DejaVuSans-6e"/>
     <use x="583.5" xlink:href="#DejaVuSans-63"/>
     <use x="638.480469" xlink:href="#DejaVuSans-65"/>
     <use x="700.003906" xlink:href="#DejaVuSans-48"/>
     <use x="775.199219" xlink:href="#DejaVuSans-65"/>
     <use x="836.722656" xlink:href="#DejaVuSans-6c"/>
     <use x="864.505859" xlink:href="#DejaVuSans-70"/>
     <use x="927.982422" xlink:href="#DejaVuSans-65"/>
     <use x="989.505859" xlink:href="#DejaVuSans-72"/>
     <use x="1030.619141" xlink:href="#DejaVuSans-73"/>
     <use x="1082.71875" xlink:href="#DejaVuSans-2e"/>
     <use x="1114.505859" xlink:href="#DejaVuSans-74"/>
     <use x="1153.714844" xlink:href="#DejaVuSans-73"/>
    </g>
   </g>
   <g id="text_11">
    <!-- utilities.ts -->
    <g transform="translate(161.36 211.58)scale(0.12 -0.12)">
     <use xlink:href="#DejaVuSans-75"/>
     <use x="63.378906" xlink:href="#DejaVuSans-74"/>
     <use x="102.587891" xlink:href="#DejaVuSans-69"/>
     <use x="130.371094" xlink:href="#DejaVuSans-6c"/>
     <use x="158.154297" xlink:href="#DejaVuSans-69"/>
     <use x="185.9375" xlink:href="#DejaVuSans-74"/>
     <use x="225.146484" xlink:href="#DejaVuSans-69"/>
     <use x="252.929688" xlink:href="#DejaVuSans-65"/>
     <use x="314.453125" xlink:href="#DejaVuSans-73"/>
     <use x="366.552734" xlink:href="#DejaVuSans-2e"/>
     <use x="398.339844" xlink:href="#DejaVuSans-74"/>
     <use x="437.548828" xlink:href="#DejaVuSans-73"/>
    </g>
   </g>
   <g id="text_12">
    <!-- navigationBar.ts -->
    <defs>
     <path d="M 19.671875 34.8125 
L 19.671875 8.109375 
L 35.5 8.109375 
Q 43.453125 8.109375 47.28125 11.40625 
Q 51.125 14.703125 51.125 21.484375 
Q 51.125 28.328125 47.28125 31.5625 
Q 43.453125 34.8125 35.5 34.8125 
z
M 19.671875 64.796875 
L 19.671875 42.828125 
L 34.28125 42.828125 
Q 41.5 42.828125 45.03125 45.53125 
Q 48.578125 48.25 48.578125 53.8125 
Q 48.578125 59.328125 45.03125 62.0625 
Q 41.5 64.796875 34.28125 64.796875 
z
M 9.8125 72.90625 
L 35.015625 72.90625 
Q 46.296875 72.90625 52.390625 68.21875 
Q 58.5 63.53125 58.5 54.890625 
Q 58.5 48.1875 55.375 44.234375 
Q 52.25 40.28125 46.1875 39.3125 
Q 53.46875 37.75 57.5 32.78125 
Q 61.53125 27.828125 61.53125 20.40625 
Q 61.53125 10.640625 54.890625 5.3125 
Q 48.25 0 35.984375 0 
L 9.8125 0 
z
" id="DejaVuSans-42"/>
    </defs>
    <g transform="translate(161.36 194.84)scale(0.12 -0.12)">
     <use xlink:href="#DejaVuSans-6e"/>
     <use x="63.378906" xlink:href="#DejaVuSans-61"/>
     <use x="124.658203" xlink:href="#DejaVuSans-76"/>
     <use x="183.837891" xlink:href="#DejaVuSans-69"/>
     <use x="211.621094" xlink:href="#DejaVuSans-67"/>
     <use x="275.097656" xlink:href="#DejaVuSans-61"/>
     <use x="336.376953" xlink:href="#DejaVuSans-74"/>
     <use x="375.585938" xlink:href="#DejaVuSans-69"/>
     <use x="403.369141" xlink:href="#DejaVuSans-6f"/>
     <use x="464.550781" xlink:href="#DejaVuSans-6e"/>
     <use x="527.929688" xlink:href="#DejaVuSans-42"/>
     <use x="596.533203" xlink:href="#DejaVuSans-61"/>
     <use x="657.8125" xlink:href="#DejaVuSans-72"/>
     <use x="698.785156" xlink:href="#DejaVuSans-2e"/>
     <use x="730.572266" xlink:href="#DejaVuSans-74"/>
     <use x="769.78125" xlink:href="#DejaVuSans-73"/>
    </g>
   </g>
   <g id="text_13">
    <!-- outliningElementsCollector.ts -->
    <defs>
     <path d="M 9.8125 72.90625 
L 55.90625 72.90625 
L 55.90625 64.59375 
L 19.671875 64.59375 
L 19.671875 43.015625 
L 54.390625 43.015625 
L 54.390625 34.71875 
L 19.671875 34.71875 
L 19.671875 8.296875 
L 56.78125 8.296875 
L 56.78125 0 
L 9.8125 0 
z
" id="DejaVuSans-45"/>
     <path d="M 52 44.1875 
Q 55.375 50.25 60.0625 53.125 
Q 64.75 56 71.09375 56 
Q 79.640625 56 84.28125 50.015625 
Q 88.921875 44.046875 88.921875 33.015625 
L 88.921875 0 
L 79.890625 0 
L 79.890625 32.71875 
Q 79.890625 40.578125 77.09375 44.375 
Q 74.3125 48.1875 68.609375 48.1875 
Q 61.625 48.1875 57.5625 43.546875 
Q 53.515625 38.921875 53.515625 30.90625 
L 53.515625 0 
L 44.484375 0 
L 44.484375 32.71875 
Q 44.484375 40.625 41.703125 44.40625 
Q 38.921875 48.1875 33.109375 48.1875 
Q 26.21875 48.1875 22.15625 43.53125 
Q 18.109375 38.875 18.109375 30.90625 
L 18.109375 0 
L 9.078125 0 
L 9.078125 54.6875 
L 18.109375 54.6875 
L 18.109375 46.1875 
Q 21.1875 51.21875 25.484375 53.609375 
Q 29.78125 56 35.6875 56 
Q 41.65625 56 45.828125 52.96875 
Q 50 49.953125 52 44.1875 
z
" id="DejaVuSans-6d"/>
     <path d="M 64.40625 67.28125 
L 64.40625 56.890625 
Q 59.421875 61.53125 53.78125 63.8125 
Q 48.140625 66.109375 41.796875 66.109375 
Q 29.296875 66.109375 22.65625 58.46875 
Q 16.015625 50.828125 16.015625 36.375 
Q 16.015625 21.96875 22.65625 14.328125 
Q 29.296875 6.6875 41.796875 6.6875 
Q 48.140625 6.6875 53.78125 8.984375 
Q 59.421875 11.28125 64.40625 15.921875 
L 64.40625 5.609375 
Q 59.234375 2.09375 53.4375 0.328125 
Q 47.65625 -1.421875 41.21875 -1.421875 
Q 24.65625 -1.421875 15.125 8.703125 
Q 5.609375 18.84375 5.609375 36.375 
Q 5.609375 53.953125 15.125 64.078125 
Q 24.65625 74.21875 41.21875 74.21875 
Q 47.75 74.21875 53.53125 72.484375 
Q 59.328125 70.75 64.40625 67.28125 
z
" id="DejaVuSans-43"/>
    </defs>
    <g transform="translate(161.36 178.1)scale(0.12 -0.12)">
     <use xlink:href="#DejaVuSans-6f"/>
     <use x="61.181641" xlink:href="#DejaVuSans-75"/>
     <use x="124.560547" xlink:href="#DejaVuSans-74"/>
     <use x="163.769531" xlink:href="#DejaVuSans-6c"/>
     <use x="191.552734" xlink:href="#DejaVuSans-69"/>
     <use x="219.335938" xlink:href="#DejaVuSans-6e"/>
     <use x="282.714844" xlink:href="#DejaVuSans-69"/>
     <use x="310.498047" xlink:href="#DejaVuSans-6e"/>
     <use x="373.876953" xlink:href="#DejaVuSans-67"/>
     <use x="437.353516" xlink:href="#DejaVuSans-45"/>
     <use x="500.537109" xlink:href="#DejaVuSans-6c"/>
     <use x="528.320312" xlink:href="#DejaVuSans-65"/>
     <use x="589.84375" xlink:href="#DejaVuSans-6d"/>
     <use x="687.255859" xlink:href="#DejaVuSans-65"/>
     <use x="748.779297" xlink:href="#DejaVuSans-6e"/>
     <use x="812.158203" xlink:href="#DejaVuSans-74"/>
     <use x="851.367188" xlink:href="#DejaVuSans-73"/>
     <use x="903.466797" xlink:href="#DejaVuSans-43"/>
     <use x="973.291016" xlink:href="#DejaVuSans-6f"/>
     <use x="1034.472656" xlink:href="#DejaVuSans-6c"/>
     <use x="1062.255859" xlink:href="#DejaVuSans-6c"/>
     <use x="1090.039062" xlink:href="#DejaVuSans-65"/>
     <use x="1151.5625" xlink:href="#DejaVuSans-63"/>
     <use x="1206.542969" xlink:href="#DejaVuSans-74"/>
     <use x="1245.751953" xlink:href="#DejaVuSans-6f"/>
     <use x="1306.933594" xlink:href="#DejaVuSans-72"/>
     <use x="1347.90625" xlink:href="#DejaVuSans-2e"/>
     <use x="1379.693359" xlink:href="#DejaVuSans-74"/>
     <use x="1418.902344" xlink:href="#DejaVuSans-73"/>
    </g>
   </g>
   <g id="text_14">
    <!-- navigateTo.ts -->
    <defs>
     <path d="M -0.296875 72.90625 
L 61.375 72.90625 
L 61.375 64.59375 
L 35.5 64.59375 
L 35.5 0 
L 25.59375 0 
L 25.59375 64.59375 
L -0.296875 64.59375 
z
" id="DejaVuSans-54"/>
    </defs>
    <g transform="translate(161.36 161.36)scale(0.12 -0.12)">
     <use xlink:href="#DejaVuSans-6e"/>
     <use x="63.378906" xlink:href="#DejaVuSans-61"/>
     <use x="124.658203" xlink:href="#DejaVuSans-76"/>
     <use x="183.837891" xlink:href="#DejaVuSans-69"/>
     <use x="211.621094" xlink:href="#DejaVuSans-67"/>
     <use x="275.097656" xlink:href="#DejaVuSans-61"/>
     <use x="336.376953" xlink:href="#DejaVuSans-74"/>
     <use x="375.585938" xlink:href="#DejaVuSans-65"/>
     <use x="437.109375" xlink:href="#DejaVuSans-54"/>
     <use x="497.927734" xlink:href="#DejaVuSans-6f"/>
     <use x="559.09375" xlink:href="#DejaVuSans-2e"/>
     <use x="590.880859" xlink:href="#DejaVuSans-74"/>
     <use x="630.089844" xlink:href="#DejaVuSans-73"/>
    </g>
   </g>
   <g id="text_15">
    <!-- patternMatcher.ts -->
    <defs>
     <path d="M 9.8125 72.90625 
L 24.515625 72.90625 
L 43.109375 23.296875 
L 61.8125 72.90625 
L 76.515625 72.90625 
L 76.515625 0 
L 66.890625 0 
L 66.890625 64.015625 
L 48.09375 14.015625 
L 38.1875 14.015625 
L 19.390625 64.015625 
L 19.390625 0 
L 9.8125 0 
z
" id="DejaVuSans-4d"/>
    </defs>
    <g transform="translate(161.36 144.62)scale(0.12 -0.12)">
     <use xlink:href="#DejaVuSans-70"/>
     <use x="63.476562" xlink:href="#DejaVuSans-61"/>
     <use x="124.755859" xlink:href="#DejaVuSans-74"/>
     <use x="163.964844" xlink:href="#DejaVuSans-74"/>
     <use x="203.173828" xlink:href="#DejaVuSans-65"/>
     <use x="264.697266" xlink:href="#DejaVuSans-72"/>
     <use x="305.794922" xlink:href="#DejaVuSans-6e"/>
     <use x="369.173828" xlink:href="#DejaVuSans-4d"/>
     <use x="455.453125" xlink:href="#DejaVuSans-61"/>
     <use x="516.732422" xlink:href="#DejaVuSans-74"/>
     <use x="555.941406" xlink:href="#DejaVuSans-63"/>
     <use x="610.921875" xlink:href="#DejaVuSans-68"/>
     <use x="674.300781" xlink:href="#DejaVuSans-65"/>
     <use x="735.824219" xlink:href="#DejaVuSans-72"/>
     <use x="776.796875" xlink:href="#DejaVuSans-2e"/>
     <use x="808.583984" xlink:href="#DejaVuSans-74"/>
     <use x="847.792969" xlink:href="#DejaVuSans-73"/>
    </g>
   </g>
   <g id="text_16">
    <!-- services.ts -->
    <g transform="translate(161.36 127.88)scale(0.12 -0.12)">
     <use xlink:href="#DejaVuSans-73"/>
     <use x="52.099609" xlink:href="#DejaVuSans-65"/>
     <use x="113.623047" xlink:href="#DejaVuSans-72"/>
     <use x="154.736328" xlink:href="#DejaVuSans-76"/>
     <use x="213.916016" xlink:href="#DejaVuSans-69"/>
     <use x="241.699219" xlink:href="#DejaVuSans-63"/>
     <use x="296.679688" xlink:href="#DejaVuSans-65"/>
     <use x="358.203125" xlink:href="#DejaVuSans-73"/>
     <use x="410.302734" xlink:href="#DejaVuSans-2e"/>
     <use x="442.089844" xlink:href="#DejaVuSans-74"/>
     <use x="481.298828" xlink:href="#DejaVuSans-73"/>
    </g>
   </g>
   <g id="text_17">
    <!-- signatureHelp.ts -->
    <g transform="translate(161.36 111.14)scale(0.12 -0.12)">
     <use xlink:href="#DejaVuSans-73"/>
     <use x="52.099609" xlink:href="#DejaVuSans-69"/>
     <use x="79.882812" xlink:href="#DejaVuSans-67"/>
     <use x="143.359375" xlink:href="#DejaVuSans-6e"/>
     <use x="206.738281" xlink:href="#DejaVuSans-61"/>
     <use x="268.017578" xlink:href="#DejaVuSans-74"/>
     <use x="307.226562" xlink:href="#DejaVuSans-75"/>
     <use x="370.605469" xlink:href="#DejaVuSans-72"/>
     <use x="411.6875" xlink:href="#DejaVuSans-65"/>
     <use x="473.210938" xlink:href="#DejaVuSans-48"/>
     <use x="548.40625" xlink:href="#DejaVuSans-65"/>
     <use x="609.929688" xlink:href="#DejaVuSans-6c"/>
     <use x="637.712891" xlink:href="#DejaVuSans-70"/>
     <use x="701.189453" xlink:href="#DejaVuSans-2e"/>
     <use x="732.976562" xlink:href="#DejaVuSans-74"/>
     <use x="772.185547" xlink:href="#DejaVuSans-73"/>
    </g>
   </g>
   <g id="text_18">
    <!-- shims.ts -->
    <g transform="translate(161.36 94.4)scale(0.12 -0.12)">
     <use xlink:href="#DejaVuSans-73"/>
     <use x="52.099609" xlink:href="#DejaVuSans-68"/>
     <use x="115.478516" xlink:href="#DejaVuSans-69"/>
     <use x="143.261719" xlink:href="#DejaVuSans-6d"/>
     <use x="240.673828" xlink:href="#DejaVuSans-73"/>
     <use x="292.773438" xlink:href="#DejaVuSans-2e"/>
     <use x="324.560547" xlink:href="#DejaVuSans-74"/>
     <use x="363.769531" xlink:href="#DejaVuSans-73"/>
    </g>
   </g>
   <g id="text_19">
    <!-- getScriptLexicalStructureWalker.ts -->
    <defs>
     <path d="M 53.515625 70.515625 
L 53.515625 60.890625 
Q 47.90625 63.578125 42.921875 64.890625 
Q 37.9375 66.21875 33.296875 66.21875 
Q 25.25 66.21875 20.875 63.09375 
Q 16.5 59.96875 16.5 54.203125 
Q 16.5 49.359375 19.40625 46.890625 
Q 22.3125 44.4375 30.421875 42.921875 
L 36.375 41.703125 
Q 47.40625 39.59375 52.65625 34.296875 
Q 57.90625 29 57.90625 20.125 
Q 57.90625 9.515625 50.796875 4.046875 
Q 43.703125 -1.421875 29.984375 -1.421875 
Q 24.8125 -1.421875 18.96875 -0.25 
Q 13.140625 0.921875 6.890625 3.21875 
L 6.890625 13.375 
Q 12.890625 10.015625 18.65625 8.296875 
Q 24.421875 6.59375 29.984375 6.59375 
Q 38.421875 6.59375 43.015625 9.90625 
Q 47.609375 13.234375 47.609375 19.390625 
Q 47.609375 24.75 44.3125 27.78125 
Q 41.015625 30.8125 33.5 32.328125 
L 27.484375 33.5 
Q 16.453125 35.6875 11.515625 40.375 
Q 6.59375 45.0625 6.59375 53.421875 
Q 6.59375 63.09375 13.40625 68.65625 
Q 20.21875 74.21875 32.171875 74.21875 
Q 37.3125 74.21875 42.625 73.28125 
Q 47.953125 72.359375 53.515625 70.515625 
z
" id="DejaVuSans-53"/>
     <path d="M 9.8125 72.90625 
L 19.671875 72.90625 
L 19.671875 8.296875 
L 55.171875 8.296875 
L 55.171875 0 
L 9.8125 0 
z
" id="DejaVuSans-4c"/>
     <path d="M 54.890625 54.6875 
L 35.109375 28.078125 
L 55.90625 0 
L 45.3125 0 
L 29.390625 21.484375 
L 13.484375 0 
L 2.875 0 
L 24.125 28.609375 
L 4.6875 54.6875 
L 15.28125 54.6875 
L 29.78125 35.203125 
L 44.28125 54.6875 
z
" id="DejaVuSans-78"/>
     <path d="M 3.328125 72.90625 
L 13.28125 72.90625 
L 28.609375 11.28125 
L 43.890625 72.90625 
L 54.984375 72.90625 
L 70.3125 11.28125 
L 85.59375 72.90625 
L 95.609375 72.90625 
L 77.296875 0 
L 64.890625 0 
L 49.515625 63.28125 
L 33.984375 0 
L 21.578125 0 
z
" id="DejaVuSans-57"/>
    </defs>
    <g transform="translate(161.36 77.66)scale(0.12 -0.12)">
     <use xlink:href="#DejaVuSans-67"/>
     <use x="63.476562" xlink:href="#DejaVuSans-65"/>
     <use x="125" xlink:href="#DejaVuSans-74"/>
     <use x="164.208984" xlink:href="#DejaVuSans-53"/>
     <use x="227.685547" xlink:href="#DejaVuSans-63"/>
     <use x="282.666016" xlink:href="#DejaVuSans-72"/>
     <use x="323.779297" xlink:href="#DejaVuSans-69"/>
     <use x="351.5625" xlink:href="#DejaVuSans-70"/>
     <use x="415.039062" xlink:href="#DejaVuSans-74"/>
     <use x="454.248047" xlink:href="#DejaVuSans-4c"/>
     <use x="509.945312" xlink:href="#DejaVuSans-65"/>
     <use x="571.453125" xlink:href="#DejaVuSans-78"/>
     <use x="630.632812" xlink:href="#DejaVuSans-69"/>
     <use x="658.416016" xlink:href="#DejaVuSans-63"/>
     <use x="713.396484" xlink:href="#DejaVuSans-61"/>
     <use x="774.675781" xlink:href="#DejaVuSans-6c"/>
     <use x="802.458984" xlink:href="#DejaVuSans-53"/>
     <use x="865.935547" xlink:href="#DejaVuSans-74"/>
     <use x="905.144531" xlink:href="#DejaVuSans-72"/>
     <use x="946.257812" xlink:href="#DejaVuSans-75"/>
     <use x="1009.636719" xlink:href="#DejaVuSans-63"/>
     <use x="1064.617188" xlink:href="#DejaVuSans-74"/>
     <use x="1103.826172" xlink:href="#DejaVuSans-75"/>
     <use x="1167.205078" xlink:href="#DejaVuSans-72"/>
     <use x="1208.287109" xlink:href="#DejaVuSans-65"/>
     <use x="1269.810547" xlink:href="#DejaVuSans-57"/>
     <use x="1368.59375" xlink:href="#DejaVuSans-61"/>
     <use x="1429.873047" xlink:href="#DejaVuSans-6c"/>
     <use x="1457.65625" xlink:href="#DejaVuSans-6b"/>
     <use x="1515.519531" xlink:href="#DejaVuSans-65"/>
     <use x="1577.042969" xlink:href="#DejaVuSans-72"/>
     <use x="1618.015625" xlink:href="#DejaVuSans-2e"/>
     <use x="1649.802734" xlink:href="#DejaVuSans-74"/>
     <use x="1689.011719" xlink:href="#DejaVuSans-73"/>
    </g>
   </g>
   <g id="text_20">
    <!-- braceMatcher.ts -->
    <g transform="translate(161.36 60.92)scale(0.12 -0.12)">
     <use xlink:href="#DejaVuSans-62"/>
     <use x="63.476562" xlink:href="#DejaVuSans-72"/>
     <use x="104.589844" xlink:href="#DejaVuSans-61"/>
     <use x="165.869141" xlink:href="#DejaVuSans-63"/>
     <use x="220.849609" xlink:href="#DejaVuSans-65"/>
     <use x="282.373047" xlink:href="#DejaVuSans-4d"/>
     <use x="368.652344" xlink:href="#DejaVuSans-61"/>
     <use x="429.931641" xlink:href="#DejaVuSans-74"/>
     <use x="469.140625" xlink:href="#DejaVuSans-63"/>
     <use x="524.121094" xlink:href="#DejaVuSans-68"/>
     <use x="587.5" xlink:href="#DejaVuSans-65"/>
     <use x="649.023438" xlink:href="#DejaVuSans-72"/>
     <use x="689.996094" xlink:href="#DejaVuSans-2e"/>
     <use x="721.783203" xlink:href="#DejaVuSans-74"/>
     <use x="760.992188" xlink:href="#DejaVuSans-73"/>
    </g>
   </g>
  </g>
 </g>
 <defs>
  <clipPath id="p0aa8179680">
   <rect height="284.58" width="133.92" x="10.7" y="10.7"/>
  </clipPath>
 </defs>
</svg>
