<?xml version="1.0" encoding="UTF-8"?><svg xmlns="http://www.w3.org/2000/svg" xmlns:xlink="http://www.w3.org/1999/xlink" fill-opacity="1" color-rendering="auto" color-interpolation="auto" text-rendering="auto" stroke="black" stroke-linecap="square" width="511" stroke-miterlimit="10" shape-rendering="auto" stroke-opacity="1" fill="black" stroke-dasharray="none" font-weight="normal" stroke-width="1" height="518" font-family="'Dialog'" font-style="normal" stroke-linejoin="miter" font-size="12px" stroke-dashoffset="0" image-rendering="auto">
  <!--Generated by ySVG 2.5-->
  <defs id="genericDefs"/>
  <g>
    <defs id="defs1">
      <clipPath clipPathUnits="userSpaceOnUse" id="clipPath1">
        <path d="M0 0 L511 0 L511 518 L0 518 L0 0 Z"/>
      </clipPath>
      <clipPath clipPathUnits="userSpaceOnUse" id="clipPath2">
        <path d="M115 18 L626 18 L626 536 L115 536 L115 18 Z"/>
      </clipPath>
      <clipPath clipPathUnits="userSpaceOnUse" id="clipPath3">
        <path d="M190 386 L190 435 L290 435 L290 386 Z"/>
      </clipPath>
      <clipPath clipPathUnits="userSpaceOnUse" id="clipPath4">
        <path d="M369 380 L369 442 L494 442 L494 380 Z"/>
      </clipPath>
      <clipPath clipPathUnits="userSpaceOnUse" id="clipPath5">
        <path d="M369 289 L369 351 L494 351 L494 289 Z"/>
      </clipPath>
      <clipPath clipPathUnits="userSpaceOnUse" id="clipPath6">
        <path d="M256 135 L256 184 L396 184 L396 135 Z"/>
      </clipPath>
      <clipPath clipPathUnits="userSpaceOnUse" id="clipPath7">
        <path d="M256 33 L256 99 L610 99 L610 33 Z"/>
      </clipPath>
      <clipPath clipPathUnits="userSpaceOnUse" id="clipPath8">
        <path d="M369 471 L369 520 L494 520 L494 471 Z"/>
      </clipPath>
      <clipPath clipPathUnits="userSpaceOnUse" id="clipPath9">
        <path d="M256 219 L256 268 L396 268 L396 219 Z"/>
      </clipPath>
      <clipPath clipPathUnits="userSpaceOnUse" id="clipPath10">
        <path d="M470 219 L470 268 L610 268 L610 219 Z"/>
      </clipPath>
      <clipPath clipPathUnits="userSpaceOnUse" id="clipPath11">
        <path d="M470 135 L470 184 L610 184 L610 135 Z"/>
      </clipPath>
    </defs>
    <g fill="rgb(255,153,204)" text-rendering="geometricPrecision" shape-rendering="geometricPrecision" transform="matrix(1,0,0,1,-115,-18)" stroke="rgb(255,153,204)">
      <rect x="191" width="98" height="47" y="387" clip-path="url(#clipPath2)" stroke="none"/>
    </g>
    <g fill="rgb(255,218,255)" text-rendering="geometricPrecision" shape-rendering="geometricPrecision" transform="matrix(1,0,0,1,-115,-18)" stroke="rgb(255,218,255)">
      <rect x="190" width="1" height="49" y="386" clip-path="url(#clipPath2)" stroke="none"/>
      <rect x="191" width="98" height="1" y="386" clip-path="url(#clipPath2)" stroke="none"/>
      <rect x="191" y="434" clip-path="url(#clipPath2)" fill="rgb(178,107,142)" width="99" height="1" stroke="none"/>
      <rect x="289" y="386" clip-path="url(#clipPath2)" fill="rgb(178,107,142)" width="1" height="48" stroke="none"/>
    </g>
    <g font-size="13px" stroke-linecap="butt" transform="matrix(1,0,0,1,-115,-18)" text-rendering="geometricPrecision" font-family="sans-serif" shape-rendering="geometricPrecision" font-weight="bold" stroke-miterlimit="1.45">
      <text x="206.0527" xml:space="preserve" y="404.6698" clip-path="url(#clipPath3)" stroke="none">Main menu</text>
    </g>
    <g text-rendering="geometricPrecision" shape-rendering="geometricPrecision" transform="matrix(1,0,0,1,-115,-18)">
      <line y2="412" fill="none" x1="191" clip-path="url(#clipPath3)" x2="289" y1="412"/>
      <text stroke-linecap="butt" x="195" y="429.5907" clip-path="url(#clipPath3)" font-family="sans-serif" stroke="none" stroke-miterlimit="1.45" xml:space="preserve">Pointing device</text>
      <line y2="437" fill="none" x1="191" clip-path="url(#clipPath3)" x2="289" y1="437"/>
      <rect x="370" y="381" clip-path="url(#clipPath2)" fill="rgb(204,153,255)" width="123" height="60" stroke="none"/>
      <rect x="369" y="380" clip-path="url(#clipPath2)" fill="rgb(255,218,255)" width="1" height="62" stroke="none"/>
      <rect x="370" y="380" clip-path="url(#clipPath2)" fill="rgb(255,218,255)" width="123" height="1" stroke="none"/>
      <rect x="370" y="441" clip-path="url(#clipPath2)" fill="rgb(142,107,178)" width="124" height="1" stroke="none"/>
      <rect x="493" y="380" clip-path="url(#clipPath2)" fill="rgb(142,107,178)" width="1" height="61" stroke="none"/>
    </g>
    <g font-size="13px" stroke-linecap="butt" transform="matrix(1,0,0,1,-115,-18)" text-rendering="geometricPrecision" font-family="sans-serif" shape-rendering="geometricPrecision" font-weight="bold" stroke-miterlimit="1.45">
      <text x="386.7173" xml:space="preserve" y="398.2698" clip-path="url(#clipPath4)" stroke="none">Settings menu</text>
    </g>
    <g text-rendering="geometricPrecision" shape-rendering="geometricPrecision" transform="matrix(1,0,0,1,-115,-18)">
      <line y2="406" fill="none" x1="370" clip-path="url(#clipPath4)" x2="493" y1="406"/>
      <text stroke-linecap="butt" x="374" y="423.1907" clip-path="url(#clipPath4)" font-family="sans-serif" stroke="none" stroke-miterlimit="1.45" xml:space="preserve">Pointing device</text>
      <text stroke-linecap="butt" x="374" y="437.8919" clip-path="url(#clipPath4)" font-family="sans-serif" stroke="none" stroke-miterlimit="1.45" xml:space="preserve">Keyboard (search)</text>
      <line y2="445" fill="none" x1="370" clip-path="url(#clipPath4)" x2="493" y1="445"/>
      <rect x="370" y="290" clip-path="url(#clipPath2)" fill="rgb(204,153,255)" width="123" height="60" stroke="none"/>
      <rect x="369" y="289" clip-path="url(#clipPath2)" fill="rgb(255,218,255)" width="1" height="62" stroke="none"/>
      <rect x="370" y="289" clip-path="url(#clipPath2)" fill="rgb(255,218,255)" width="123" height="1" stroke="none"/>
      <rect x="370" y="350" clip-path="url(#clipPath2)" fill="rgb(142,107,178)" width="124" height="1" stroke="none"/>
      <rect x="493" y="289" clip-path="url(#clipPath2)" fill="rgb(142,107,178)" width="1" height="61" stroke="none"/>
    </g>
    <g font-size="13px" stroke-linecap="butt" transform="matrix(1,0,0,1,-115,-18)" text-rendering="geometricPrecision" font-family="sans-serif" shape-rendering="geometricPrecision" font-weight="bold" stroke-miterlimit="1.45">
      <text x="377.3101" xml:space="preserve" y="307.0698" clip-path="url(#clipPath5)" stroke="none">Beatmap selector</text>
    </g>
    <g text-rendering="geometricPrecision" shape-rendering="geometricPrecision" transform="matrix(1,0,0,1,-115,-18)">
      <line y2="314" fill="none" x1="370" clip-path="url(#clipPath5)" x2="493" y1="314"/>
      <text stroke-linecap="butt" x="374" y="331.9907" clip-path="url(#clipPath5)" font-family="sans-serif" stroke="none" stroke-miterlimit="1.45" xml:space="preserve">Pointing device</text>
      <text stroke-linecap="butt" x="374" y="346.6919" clip-path="url(#clipPath5)" font-family="sans-serif" stroke="none" stroke-miterlimit="1.45" xml:space="preserve">Keyboard (search)</text>
      <line y2="354" fill="none" x1="370" clip-path="url(#clipPath5)" x2="493" y1="354"/>
      <rect x="257" y="136" clip-path="url(#clipPath2)" fill="rgb(153,204,255)" width="138" height="47" stroke="none"/>
      <rect x="256" y="135" clip-path="url(#clipPath2)" fill="rgb(218,255,255)" width="1" height="49" stroke="none"/>
      <rect x="257" y="135" clip-path="url(#clipPath2)" fill="rgb(218,255,255)" width="138" height="1" stroke="none"/>
      <rect x="257" y="183" clip-path="url(#clipPath2)" fill="rgb(107,142,178)" width="139" height="1" stroke="none"/>
      <rect x="395" y="135" clip-path="url(#clipPath2)" fill="rgb(107,142,178)" width="1" height="48" stroke="none"/>
    </g>
    <g font-size="13px" stroke-linecap="butt" transform="matrix(1,0,0,1,-115,-18)" text-rendering="geometricPrecision" font-family="sans-serif" shape-rendering="geometricPrecision" font-weight="bold" stroke-miterlimit="1.45">
      <text x="297.2086" xml:space="preserve" y="153.0698" clip-path="url(#clipPath6)" stroke="none">osu!taiko</text>
    </g>
    <g text-rendering="geometricPrecision" shape-rendering="geometricPrecision" transform="matrix(1,0,0,1,-115,-18)">
      <line y2="160" fill="none" x1="257" clip-path="url(#clipPath6)" x2="395" y1="160"/>
      <text stroke-linecap="butt" x="261" y="177.9907" clip-path="url(#clipPath6)" font-family="sans-serif" stroke="none" stroke-miterlimit="1.45" xml:space="preserve">4 keys</text>
      <line y2="185" fill="none" x1="257" clip-path="url(#clipPath6)" x2="395" y1="185"/>
      <rect x="257" y="34" clip-path="url(#clipPath2)" fill="rgb(153,204,255)" width="352" height="64" stroke="none"/>
      <rect x="256" y="33" clip-path="url(#clipPath2)" fill="rgb(218,255,255)" width="1" height="66" stroke="none"/>
      <rect x="257" y="33" clip-path="url(#clipPath2)" fill="rgb(218,255,255)" width="352" height="1" stroke="none"/>
      <rect x="257" y="98" clip-path="url(#clipPath2)" fill="rgb(107,142,178)" width="353" height="1" stroke="none"/>
      <rect x="609" y="33" clip-path="url(#clipPath2)" fill="rgb(107,142,178)" width="1" height="65" stroke="none"/>
    </g>
    <g font-size="13px" stroke-linecap="butt" transform="matrix(1,0,0,1,-115,-18)" text-rendering="geometricPrecision" font-family="sans-serif" shape-rendering="geometricPrecision" font-weight="bold" stroke-miterlimit="1.45">
      <text x="393.0082" xml:space="preserve" y="51.7818" clip-path="url(#clipPath7)" stroke="none">In-game chat</text>
      <text x="282.1305" xml:space="preserve" y="67.7081" clip-path="url(#clipPath7)" stroke="none">(can be triggered from anywhere with a shortcut)</text>
    </g>
    <g text-rendering="geometricPrecision" shape-rendering="geometricPrecision" transform="matrix(1,0,0,1,-115,-18)">
      <line y2="75" fill="none" x1="257" clip-path="url(#clipPath7)" x2="609" y1="75"/>
      <text stroke-linecap="butt" x="261" y="92.629" clip-path="url(#clipPath7)" font-family="sans-serif" stroke="none" stroke-miterlimit="1.45" xml:space="preserve">Keyboard</text>
      <line y2="100" fill="none" x1="257" clip-path="url(#clipPath7)" x2="609" y1="100"/>
      <rect x="370" y="472" clip-path="url(#clipPath2)" fill="rgb(255,153,204)" width="123" height="47" stroke="none"/>
      <rect x="369" y="471" clip-path="url(#clipPath2)" fill="rgb(255,218,255)" width="1" height="49" stroke="none"/>
      <rect x="370" y="471" clip-path="url(#clipPath2)" fill="rgb(255,218,255)" width="123" height="1" stroke="none"/>
      <rect x="370" y="519" clip-path="url(#clipPath2)" fill="rgb(178,107,142)" width="124" height="1" stroke="none"/>
      <rect x="493" y="471" clip-path="url(#clipPath2)" fill="rgb(178,107,142)" width="1" height="48" stroke="none"/>
    </g>
    <g font-size="13px" stroke-linecap="butt" transform="matrix(1,0,0,1,-115,-18)" text-rendering="geometricPrecision" font-family="sans-serif" shape-rendering="geometricPrecision" font-weight="bold" stroke-miterlimit="1.45">
      <text x="393.5823" xml:space="preserve" y="489.4698" clip-path="url(#clipPath8)" stroke="none">Editor mode</text>
    </g>
    <g text-rendering="geometricPrecision" shape-rendering="geometricPrecision" transform="matrix(1,0,0,1,-115,-18)">
      <line y2="497" fill="none" x1="370" clip-path="url(#clipPath8)" x2="493" y1="497"/>
      <text stroke-linecap="butt" x="374" y="514.3907" clip-path="url(#clipPath8)" font-family="sans-serif" stroke="none" stroke-miterlimit="1.45" xml:space="preserve">Pointing device</text>
      <line y2="522" fill="none" x1="370" clip-path="url(#clipPath8)" x2="493" y1="522"/>
      <rect x="257" y="220" clip-path="url(#clipPath2)" fill="rgb(204,153,255)" width="138" height="47" stroke="none"/>
      <rect x="256" y="219" clip-path="url(#clipPath2)" fill="rgb(255,218,255)" width="1" height="49" stroke="none"/>
      <rect x="257" y="219" clip-path="url(#clipPath2)" fill="rgb(255,218,255)" width="138" height="1" stroke="none"/>
      <rect x="257" y="267" clip-path="url(#clipPath2)" fill="rgb(142,107,178)" width="139" height="1" stroke="none"/>
      <rect x="395" y="219" clip-path="url(#clipPath2)" fill="rgb(142,107,178)" width="1" height="48" stroke="none"/>
    </g>
    <g font-size="13px" stroke-linecap="butt" transform="matrix(1,0,0,1,-115,-18)" text-rendering="geometricPrecision" font-family="sans-serif" shape-rendering="geometricPrecision" font-weight="bold" stroke-miterlimit="1.45">
      <text x="312.3795" xml:space="preserve" y="237.0698" clip-path="url(#clipPath9)" stroke="none">osu!</text>
    </g>
    <g text-rendering="geometricPrecision" shape-rendering="geometricPrecision" transform="matrix(1,0,0,1,-115,-18)">
      <line y2="244" fill="none" x1="257" clip-path="url(#clipPath9)" x2="395" y1="244"/>
      <text stroke-linecap="butt" x="261" y="261.9907" clip-path="url(#clipPath9)" font-family="sans-serif" stroke="none" stroke-miterlimit="1.45" xml:space="preserve">Pointing device + 2 keys</text>
      <line y2="269" fill="none" x1="257" clip-path="url(#clipPath9)" x2="395" y1="269"/>
      <rect x="471" y="220" clip-path="url(#clipPath2)" fill="rgb(153,204,255)" width="138" height="47" stroke="none"/>
      <rect x="470" y="219" clip-path="url(#clipPath2)" fill="rgb(218,255,255)" width="1" height="49" stroke="none"/>
      <rect x="471" y="219" clip-path="url(#clipPath2)" fill="rgb(218,255,255)" width="138" height="1" stroke="none"/>
      <rect x="471" y="267" clip-path="url(#clipPath2)" fill="rgb(107,142,178)" width="139" height="1" stroke="none"/>
      <rect x="609" y="219" clip-path="url(#clipPath2)" fill="rgb(107,142,178)" width="1" height="48" stroke="none"/>
    </g>
    <g font-size="13px" stroke-linecap="butt" transform="matrix(1,0,0,1,-115,-18)" text-rendering="geometricPrecision" font-family="sans-serif" shape-rendering="geometricPrecision" font-weight="bold" stroke-miterlimit="1.45">
      <text x="509.3996" xml:space="preserve" y="237.0698" clip-path="url(#clipPath10)" stroke="none">osu!catch</text>
    </g>
    <g text-rendering="geometricPrecision" shape-rendering="geometricPrecision" transform="matrix(1,0,0,1,-115,-18)">
      <line y2="244" fill="none" x1="471" clip-path="url(#clipPath10)" x2="609" y1="244"/>
      <text stroke-linecap="butt" x="475" y="261.9907" clip-path="url(#clipPath10)" font-family="sans-serif" stroke="none" stroke-miterlimit="1.45" xml:space="preserve">3 keys</text>
      <line y2="269" fill="none" x1="471" clip-path="url(#clipPath10)" x2="609" y1="269"/>
      <circle stroke-linecap="butt" clip-path="url(#clipPath2)" fill="none" r="15" cx="145" cy="411.4" stroke-miterlimit="1.45"/>
      <rect x="471" y="136" clip-path="url(#clipPath2)" fill="rgb(153,204,255)" width="138" height="47" stroke="none"/>
      <rect x="470" y="135" clip-path="url(#clipPath2)" fill="rgb(218,255,255)" width="1" height="49" stroke="none"/>
      <rect x="471" y="135" clip-path="url(#clipPath2)" fill="rgb(218,255,255)" width="138" height="1" stroke="none"/>
      <rect x="471" y="183" clip-path="url(#clipPath2)" fill="rgb(107,142,178)" width="139" height="1" stroke="none"/>
      <rect x="609" y="135" clip-path="url(#clipPath2)" fill="rgb(107,142,178)" width="1" height="48" stroke="none"/>
    </g>
    <g font-size="13px" stroke-linecap="butt" transform="matrix(1,0,0,1,-115,-18)" text-rendering="geometricPrecision" font-family="sans-serif" shape-rendering="geometricPrecision" font-weight="bold" stroke-miterlimit="1.45">
      <text x="507.5937" xml:space="preserve" y="153.0698" clip-path="url(#clipPath11)" stroke="none">osu!mania</text>
    </g>
    <g text-rendering="geometricPrecision" shape-rendering="geometricPrecision" transform="matrix(1,0,0,1,-115,-18)">
      <line y2="160" fill="none" x1="471" clip-path="url(#clipPath11)" x2="609" y1="160"/>
      <text stroke-linecap="butt" x="475" y="177.9907" clip-path="url(#clipPath11)" font-family="sans-serif" stroke="none" stroke-miterlimit="1.45" xml:space="preserve">4 to 9 keys</text>
      <line y2="185" fill="none" x1="471" clip-path="url(#clipPath11)" x2="609" y1="185"/>
      <path fill="none" stroke-miterlimit="1.45" d="M289.9789 411.4 L368.9971 411.4" clip-path="url(#clipPath2)" stroke-linecap="butt"/>
      <path fill="none" stroke-miterlimit="1.45" d="M240.3079 386.6178 L240.374 381.2969 L242.9922 358.675 L245.8441 349.8355 L250.0986 342.4656 L256.0363 336.4316 L263.9375 331.6 L274.0829 327.8371 L286.7529 325.0094 L320.7891 321.625 L368.29 320.3781 L368.9999 320.3761" clip-path="url(#clipPath2)" stroke-linecap="butt"/>
      <path fill="none" stroke-miterlimit="1.45" d="M431.5 380.1836 L431.5 351.3926" clip-path="url(#clipPath2)" stroke-linecap="butt"/>
      <path fill="none" stroke-miterlimit="1.45" d="M431.3787 288.9969 L431.2941 267.2555 L429.8531 227.4688 L428.2834 211.9222 L425.9418 198.9602 L422.6738 188.3478 L418.325 179.85 L412.7411 173.2319 L405.7676 168.2586 L397.2502 164.695 L396.1727 164.4431" clip-path="url(#clipPath2)" stroke-linecap="butt"/>
      <path fill="none" stroke-miterlimit="1.45" d="M240.3313 436.1925 L240.374 439.3906 L242.9922 460.425 L245.8441 468.6441 L250.0986 475.4969 L256.0363 481.1074 L263.9375 485.6 L274.0829 489.0988 L286.7529 491.7281 L320.7891 494.875 L368.29 496.0344 L368.9999 496.0363" clip-path="url(#clipPath2)" stroke-linecap="butt"/>
      <path fill="none" stroke-miterlimit="1.45" d="M431.5 471.3976 L431.5 442.5999" clip-path="url(#clipPath2)" stroke-linecap="butt"/>
      <path fill="none" stroke-miterlimit="1.45" d="M430.841 289.0229 L429.8531 276.0312 L425.9418 262.4524 L422.6738 257.3976 L418.325 253.35 L412.7411 250.1978 L405.7676 247.8289 L396.218 246.3837" clip-path="url(#clipPath2)" stroke-linecap="butt"/>
      <path fill="none" stroke-miterlimit="1.45" d="M432.179 289.0229 L433.1969 276.0312 L434.8142 268.6263 L437.227 262.4524 L440.5942 257.3976 L445.075 253.35 L450.8285 250.1978 L458.0137 247.8289 L469.9643 246.0735" clip-path="url(#clipPath2)" stroke-linecap="butt"/>
    </g>
    <g text-rendering="geometricPrecision" stroke-miterlimit="1.45" shape-rendering="geometricPrecision" transform="matrix(1,0,0,1,-115,-18)" stroke-linecap="butt">
      <path fill="none" d="M174.9609 405.15 L177.8109 409.9 L160 409.9 L160 412.9 L177.8109 412.9 L174.9609 417.65 L189.9609 411.4 L174.9609 405.15 Z" clip-path="url(#clipPath2)"/>
    </g>
    <g text-rendering="geometricPrecision" stroke-miterlimit="1.45" shape-rendering="geometricPrecision" transform="matrix(1,0,0,1,-115,-18)" stroke-linecap="butt">
      <path fill="none" d="M431.625 288.9969 L431.7121 267.2555 L433.1969 227.4688 L434.8142 211.9222 L437.227 198.9602 L440.5942 188.3478 L445.075 179.85 L450.8285 173.2319 L458.0137 168.2586 L466.7897 164.695 L470.0379 163.9579" clip-path="url(#clipPath2)"/>
    </g>
  </g>
</svg>
